#N canvas 1125 486 493 353 12;
#X obj 95 56 inlet;
#X obj 232 63 inlet;
#X obj 164 242 outlet;
#X text 90 26 inlets are the numbers to be added;
#X obj 196 117 t b f;
#X obj 135 116 f;
#X text 37 281 use trigger so addition updates when either operand
changes;
#X obj 170 181 *;
#X connect 0 0 5 0;
#X connect 1 0 4 0;
#X connect 4 0 5 0;
#X connect 4 1 7 1;
#X connect 5 0 7 0;
#X connect 7 0 2 0;
