#N canvas 221 23 1611 991 12;
#X declare -lib ceammc;
#X declare -lib cyclone;
#X obj 109 105 cnv 15 980 590 empty empty empty 20 12 0 14 -262079
-66577 0;
#X obj 32 548 notein, f 8;
#X obj 129 123 volume-control;
#X obj 1372 341 s decay;
#X obj 969 148 vsl 15 128 5 6000 0 0 empty vca-decay Decay 0 -9 0 10
-204786 -1 -1 5201 1;
#X obj 889 148 vsl 15 128 3 2000 0 0 empty atk Attack 0 -9 0 10 -262130
-1 -1 600 1;
#X obj 1291 341 s attack;
#X obj 28 612 pack f f;
#X obj 27 647 poly 16;
#X obj 22 686 - 1;
#X obj 22 726 pack f f f;
#X obj 1042 149 vsl 15 128 0 1 0 0 empty sus Sustain 0 -9 0 10 -204800
-1 -1 12700 1;
#X obj 1448 340 s sustain;
#X obj 22 779 clone voice2.cl 16;
#X obj 743 12 loadbang;
#X msg 706 39 1;
#X obj 706 63 s sus;
#X text 784 950 send amp envelope info to voices;
#X obj 171 550 vsl 15 128 0 1 0 0 empty s1 1 5 -9 0 10 -250907 -1 -1
0 1;
#X obj 192 550 vsl 15 128 0 1 0 0 empty s2 2 5 -9 0 10 -242717 -1 -1
0 1;
#X obj 214 550 vsl 15 128 0 1 0 0 empty s3 3 5 -9 0 10 -242781 -1 -1
0 1;
#X obj 235 550 vsl 15 128 0 1 0 0 empty s4 4 5 -9 0 10 -230495 -1 -1
0 1;
#X obj 255 550 vsl 15 128 0 1 0 0 empty s5 5 5 -9 0 10 -242781 -1 -1
0 1;
#X obj 276 550 vsl 15 128 0 1 0 0 empty s6 6 5 -9 0 10 -222369 -1 -1
0 1;
#X obj 297 550 vsl 15 128 0 1 0 0 empty s7 7 5 -9 0 10 -230495 -1 -1
0 1;
#X obj 318 550 vsl 15 128 0 1 0 0 empty s8 8 5 -9 0 10 -210083 -1 -1
0 1;
#X obj 622 851 s p1;
#X obj 634 874 s p2;
#X obj 644 894 s p3;
#X obj 674 863 s p4;
#X obj 684 888 s p5;
#X obj 700 913 s p6;
#X obj 730 868 s p7;
#X obj 736 892 s p8;
#X obj 340 550 vsl 15 128 0 1 0 0 empty s9 9 5 -9 0 10 -214179 -1 -1
0 1;
#X obj 361 550 vsl 15 128 0 1 0 0 empty s10 10 2 -9 0 10 -201956 -1
-1 0 1;
#X obj 383 550 vsl 15 128 0 1 0 0 empty s11 11 2 -9 0 10 -201956 -1
-1 0 1;
#X obj 404 550 vsl 15 128 0 1 0 0 empty s12 12 2 -9 0 10 -185640 -1
-1 0 1;
#X obj 424 550 vsl 15 128 0 1 0 0 empty s13 13 2 -9 0 10 -189735 -1
-1 0 1;
#X obj 445 550 vsl 15 128 0 1 0 0 empty s14 14 2 -9 0 10 -181545 -1
-1 0 1;
#X obj 466 550 vsl 15 128 0 1 0 0 empty s15 15 2 -9 0 10 -169323 -1
-1 0 1;
#X obj 487 550 vsl 15 128 0 1 0 0 empty s16 16 2 -9 0 10 -165228 -1
-1 0 1;
#X obj 510 550 vsl 15 128 0 1 0 0 empty s17 17 2 -9 0 10 -148912 -1
-1 0 1;
#X obj 531 550 vsl 15 128 0 1 0 0 empty s18 18 2 -9 0 10 -157038 -1
-1 0 1;
#X obj 553 550 vsl 15 128 0 1 0 0 empty s19 19 2 -9 0 10 -144816 -1
-1 0 1;
#X obj 574 550 vsl 15 128 0 1 0 0 empty s20 20 2 -9 0 10 -136691 -1
-1 0 1;
#X obj 594 550 vsl 15 128 0 1 0 0 empty s21 21 2 -9 0 10 -132596 -1
-1 0 1;
#X obj 615 550 vsl 15 128 0 1 0 0 empty s22 22 2 -9 0 10 -124406 -1
-1 0 1;
#X obj 636 550 vsl 15 128 0 1 0 0 empty s23 23 2 -9 0 10 -116280 -1
-1 0 1;
#X obj 657 550 vsl 15 128 0 1 0 0 empty s24 24 2 -9 0 10 -108090 -1
-1 0 1;
#X obj 680 550 vsl 15 128 0 1 0 0 empty s25 25 2 -9 0 10 -104059 -1
-1 0 1;
#X obj 701 550 vsl 15 128 0 1 0 0 empty s26 26 2 -9 0 10 -104059 -1
-1 0 1;
#X obj 723 550 vsl 15 128 0 1 0 0 empty s27 27 2 -9 0 10 -99964 -1
-1 0 1;
#X obj 744 550 vsl 15 128 0 1 0 0 empty s28 28 2 -9 0 10 -95868 -1
-1 0 1;
#X obj 764 550 vsl 15 128 0 1 0 0 empty s29 29 2 -9 0 10 -95869 -1
-1 0 1;
#X obj 785 550 vsl 15 128 0 1 0 0 empty s30 30 2 -9 0 10 -95869 -1
-1 0 1;
#X obj 806 550 vsl 15 128 0 1 0 0 empty s31 31 2 -9 0 10 -87677 -1
-1 0 1;
#X obj 827 550 vsl 15 128 0 1 0 0 empty s32 32 2 -9 0 10 -87613 -1
-1 0 1;
#X obj 774 862 s p9;
#X obj 786 885 s p10;
#X obj 796 905 s p11;
#X obj 882 879 s p15;
#X obj 826 874 s p12;
#X obj 836 899 s p13;
#X obj 852 924 s p14;
#X obj 888 903 s p16;
#X obj 944 862 s p17;
#X obj 956 885 s p18;
#X obj 966 905 s p19;
#X obj 996 874 s p20;
#X obj 1006 899 s p21;
#X obj 1022 924 s p22;
#X obj 1052 879 s p23;
#X obj 1058 903 s p24;
#X obj 1114 862 s p25;
#X obj 1126 885 s p26;
#X obj 1136 905 s p27;
#X obj 1166 874 s p28;
#X obj 1176 899 s p29;
#X obj 1192 924 s p30;
#X obj 1222 879 s p31;
#X obj 1228 903 s p32;
#X obj 925 550 vsl 15 128 0 1 0 0 empty odd Odd 0 -9 0 10 -261234 -1
-1 0 1;
#X obj 1004 550 vsl 15 128 0 1 0 0 empty even Even 0 -9 0 10 -203904
-1 -1 0 1;
#X msg 776 47 \; pd dsp 1;
#N canvas 391 209 1487 733 harmonic-vol-control 0;
#X floatatom 339 391 5 0 0 0 - - -;
#X text 34 9 signal from oscillators;
#X obj 285 424 sqrt;
#X floatatom 285 448 5 0 0 0 - - -;
#X obj 137 469 outlet;
#X obj 221 42 inlet;
#X obj 261 42 inlet;
#X obj 302 42 inlet;
#X obj 342 42 inlet;
#X obj 381 42 inlet;
#X obj 421 42 inlet;
#X obj 462 42 inlet;
#X obj 502 42 inlet;
#X obj 541 42 inlet;
#X obj 581 42 inlet;
#X obj 622 42 inlet;
#X obj 662 42 inlet;
#X obj 701 42 inlet;
#X obj 741 42 inlet;
#X obj 782 42 inlet;
#X obj 822 42 inlet;
#X obj 861 41 inlet;
#X obj 901 41 inlet;
#X obj 942 41 inlet;
#X obj 982 41 inlet;
#X obj 1022 41 inlet;
#X obj 1061 41 inlet;
#X obj 1102 41 inlet;
#X obj 1142 41 inlet;
#X obj 1181 41 inlet;
#X obj 1221 41 inlet;
#X obj 1262 42 inlet;
#X obj 1302 41 inlet;
#X obj 1341 41 inlet;
#X obj 1381 41 inlet;
#X obj 1422 41 inlet;
#X obj 1462 41 inlet;
#X obj 294 350 ++;
#X obj 313 329 ++;
#X obj 331 308 ++;
#X obj 349 287 ++;
#X obj 367 265 ++;
#X obj 385 244 ++;
#X obj 403 223 ++;
#X obj 421 202 ++;
#X obj 606 358 ++;
#X obj 624 337 ++;
#X obj 642 316 ++;
#X obj 660 295 ++;
#X obj 678 273 ++;
#X obj 696 252 ++;
#X obj 714 231 ++;
#X obj 732 210 ++;
#X obj 938 362 ++;
#X obj 956 341 ++;
#X obj 974 320 ++;
#X obj 992 299 ++;
#X obj 1010 277 ++;
#X obj 1028 256 ++;
#X obj 1046 235 ++;
#X obj 1064 214 ++;
#X obj 1256 367 ++;
#X obj 1274 346 ++;
#X obj 1292 325 ++;
#X obj 1310 304 ++;
#X obj 1328 282 ++;
#X obj 1346 261 ++;
#X obj 1364 240 ++;
#X connect 2 0 3 0;
#X connect 2 0 4 0;
#X connect 5 0 37 0;
#X connect 6 0 38 0;
#X connect 7 0 39 0;
#X connect 8 0 40 0;
#X connect 9 0 41 0;
#X connect 10 0 42 0;
#X connect 11 0 43 0;
#X connect 12 0 44 0;
#X connect 13 0 45 0;
#X connect 14 0 46 0;
#X connect 15 0 47 0;
#X connect 16 0 48 0;
#X connect 17 0 49 0;
#X connect 18 0 50 0;
#X connect 19 0 51 0;
#X connect 20 0 52 0;
#X connect 21 0 53 0;
#X connect 22 0 54 0;
#X connect 23 0 55 0;
#X connect 24 0 56 0;
#X connect 25 0 57 0;
#X connect 26 0 58 0;
#X connect 27 0 59 0;
#X connect 28 0 60 0;
#X connect 29 0 61 0;
#X connect 30 0 62 0;
#X connect 31 0 63 0;
#X connect 32 0 64 0;
#X connect 33 0 65 0;
#X connect 34 0 66 0;
#X connect 35 0 67 0;
#X connect 36 0 67 1;
#X connect 37 0 0 0;
#X connect 37 0 2 0;
#X connect 38 0 37 1;
#X connect 39 0 38 1;
#X connect 40 0 39 1;
#X connect 41 0 40 1;
#X connect 42 0 41 1;
#X connect 43 0 42 1;
#X connect 44 0 43 1;
#X connect 45 0 44 1;
#X connect 46 0 45 1;
#X connect 47 0 46 1;
#X connect 48 0 47 1;
#X connect 49 0 48 1;
#X connect 50 0 49 1;
#X connect 51 0 50 1;
#X connect 52 0 51 1;
#X connect 53 0 52 1;
#X connect 54 0 53 1;
#X connect 55 0 54 1;
#X connect 56 0 55 1;
#X connect 57 0 56 1;
#X connect 58 0 57 1;
#X connect 59 0 58 1;
#X connect 60 0 59 1;
#X connect 61 0 60 1;
#X connect 62 0 61 1;
#X connect 63 0 62 1;
#X connect 64 0 63 1;
#X connect 65 0 64 1;
#X connect 66 0 65 1;
#X connect 67 0 66 1;
#X restore 878 784 pd harmonic-vol-control;
#X f 63;
#X obj 21 877 /~;
#X text 7 809 divide by sqrt of sum of volume sliders;
#X floatatom 878 810 5 0 0 0 - - -;
#X obj 21 901 *~ 0.5;
#X text 1033 807 take sqrt of sum of volume sliders to keep levels
constant;
#X obj 734 364 vsl 15 128 50 20000 0 0 empty cut Cutoff 0 -9 0 10 -203904
-1 -1 12700 1;
#X obj 794 364 vsl 15 128 0 19980 0 0 empty amount Amount 0 -9 0 10
-232576 -1 -1 0 1;
#X obj 916 364 vsl 15 128 5 4000 0 0 empty vcf-attack Attack 0 -9 0
10 -261682 -1 -1 0 1;
#X obj 1041 364 vsl 15 128 0 1 0 0 empty vcf-sustain Sustain 0 -9 0
10 -204786 -1 -1 12700 1;
#X obj 978 364 vsl 15 128 3 4000 0 0 empty dec Decay 0 -9 0 10 -262130
-1 -1 12700 1;
#X obj 1111 567 s cutoff;
#X obj 1187 552 s amt;
#X obj 1295 555 s vcf-atk;
#X obj 1368 555 s vcf-dec;
#X obj 1443 555 s vcf-sus;
#X msg 640 33 20000;
#X obj 640 57 s cut;
#X floatatom 716 504 7 0 0 0 - - -;
#X msg 706 39;
#X obj 875 63 s dec;
#X msg 875 39 4000;
#X obj 1187 574 loadbang;
#X obj 1163 130 declare -lib ceammc;
#X obj 854 364 vsl 15 128 1 15 0 0 empty resonance Resonance 0 -9 0
10 -261234 -1 -1 0 1;
#X obj 1249 555 s res;
#X obj 1245 475 log;
#X obj 1263 428 loadbang;
#X floatatom 1245 521 5 0 0 0 - - -;
#X msg 1263 452 5;
#X obj 1245 499 / 1.682;
#X obj 735 148 vsl 15 128 0 8 0 0 empty rate LFO_Rate 0 -9 0 10 -261234
-1 -1 7937 1;
#X floatatom 728 288 5 0 0 0 - - -;
#X obj 32 580 mtof;
#X text 22 746 polyphonic voice management;
#X text 13 519 midi in;
#X obj 811 148 vsl 15 128 0 12 0 0 empty depth LFO_Depth 0 -9 0 10
-261682 -1 -1 4498 1;
#X floatatom 804 288 5 0 0 0 - - -;
#X obj 1109 358 s lfo-rate;
#X obj 1194 354 s lfo-depth;
#X obj 1193 329 line \$1 100;
#X obj 1109 332 line \$1 100;
#X obj 538 31 loadbang;
#X obj 1176 90 declare -lib cyclone;
#X floatatom 881 288 5 0 0 0 - - -;
#X floatatom 961 288 5 0 0 0 - - -;
#X floatatom 1034 289 5 0 0 0 - - -;
#X floatatom 778 504 7 0 0 0 - - -;
#X floatatom 844 504 5 0 0 0 - - -;
#X floatatom 907 504 5 0 0 0 - - -;
#X floatatom 969 504 5 0 0 0 - - -;
#X floatatom 1031 504 5 0 0 0 - - -;
#N canvas 0 22 450 278 (subpatch) 0;
#X array waveform 2000 float 1;
#A 0 0 0 0 0 0 0 0 0 0 0 0 0 0 0 0 0 0 0 0 0 0 0 0 0 0 0 0 0 0 0 0
0 0 0 0 0 0 0 0 0 0 0 0 0 0 0 0 0 0 0 0 0 0 0 0 0 0 0 0 0 0 0 0 0 0
0 0 0 0 0 0 0 0 0 0 0 0 0 0 0 0 0 0 0 0 0 0 0 0 0 0 0 0 0 0 0 0 0 0
0 0 0 0 0 0 0 0 0 0 0 0 0 0 0 0 0 0 0 0 0 0 0 0 0 0 0 0 0 0 0 0 0 0
0 0 0 0 0 0 0 0 0 0 0 0 0 0 0 0 0 0 0 0 0 0 0 0 0 0 0 0 0 0 0 0 0 0
0 0 0 0 0 0 0 0 0 0 0 0 0 0 0 0 0 0 0 0 0 0 0 0 0 0 0 0 0 0 0 0 0 0
0 0 0 0 0 0 0 0 0 0 0 0 0 0 0 0 0 0 0 0 0 0 0 0 0 0 0 0 0 0 0 0 0 0
0 0 0 0 0 0 0 0 0 0 0 0 0 0 0 0 0 0 0 0 0 0 0 0 0 0 0 0 0 0 0 0 0 0
0 0 0 0 0 0 0 0 0 0 0 0 0 0 0 0 0 0 0 0 0 0 0 0 0 0 0 0 0 0 0 0 0 0
0 0 0 0 0 0 0 0 0 0 0 0 0 0 0 0 0 0 0 0 0 0 0 0 0 0 0 0 0 0 0 0 0 0
0 0 0 0 0 0 0 0 0 0 0 0 0 0 0 0 0 0 0 0 0 0 0 0 0 0 0 0 0 0 0 0 0 0
0 0 0 0 0 0 0 0 0 0 0 0 0 0 0 0 0 0 0 0 0 0 0 0 0 0 0 0 0 0 0 0 0 0
0 0 0 0 0 0 0 0 0 0 0 0 0 0 0 0 0 0 0 0 0 0 0 0 0 0 0 0 0 0 0 0 0 0
0 0 0 0 0 0 0 0 0 0 0 0 0 0 0 0 0 0 0 0 0 0 0 0 0 0 0 0 0 0 0 0 0 0
0 0 0 0 0 0 0 0 0 0 0 0 0 0 0 0 0 0 0 0 0 0 0 0 0 0 0 0 0 0 0 0 0 0
0 0 0 0 0 0 0 0 0 0 0 0 0 0 0 0 0 0 0 0 0 0 0 0 0 0 0 0 0 0 0 0 0 0
0 0 0 0 0 0 0 0 0 0 0 0 0 0 0 0 0 0 0 0 0 0 0 0 0 0 0 0 0 0 0 0 0 0
0 0 0 0 0 0 0 0 0 0 0 0 0 0 0 0 0 0 0 0 0 0 0 0 0 0 0 0 0 0 0 0 0 0
0 0 0 0 0 0 0 0 0 0 0 0 0 0 0 0 0 0 0 0 0 0 0 0 0 0 0 0 0 0 0 0 0 0
0 0 0 0 0 0 0 0 0 0 0 0 0 0 0 0 0 0 0 0 0 0 0 0 0 0 0 0 0 0 0 0 0 0
0 0 0 0 0 0 0 0 0 0 0 0 0 0 0 0 0 0 0 0 0 0 0 0 0 0 0 0 0 0 0 0 0 0
0 0 0 0 0 0 0 0 0 0 0 0 0 0 0 0 0 0 0 0 0 0 0 0 0 0 0 0 0 0 0 0 0 0
0 0 0 0 0 0 0 0 0 0 0 0 0 0 0 0 0 0 0 0 0 0 0 0 0 0 0 0 0 0 0 0 0 0
0 0 0 0 0 0 0 0 0 0 0 0 0 0 0 0 0 0 0 0 0 0 0 0 0 0 0 0 0 0 0 0 0 0
0 0 0 0 0 0 0 0 0 0 0 0 0 0 0 0 0 0 0 0 0 0 0 0 0 0 0 0 0 0 0 0 0 0
0 0 0 0 0 0 0 0 0 0 0 0 0 0 0 0 0 0 0 0 0 0 0 0 0 0 0 0 0 0 0 0 0 0
0 0 0 0 0 0 0 0 0 0 0 0 0 0 0 0 0 0 0 0 0 0 0 0 0 0 0 0 0 0 0 0 0 0
0 0 0 0 0 0 0 0 0 0 0 0 0 0 0 0 0 0 0 0 0 0 0 0 0 0 0 0 0 0 0 0 0 0
0 0 0 0 0 0 0 0 0 0 0 0 0 0 0 0 0 0 0 0 0 0 0 0 0 0 0 0 0 0 0 0 0 0
0 0 0 0 0 0 0 0 0 0 0 0 0 0 0 0 0;
#A 1000 0 0 0 0 0 0 0 0 0 0 0 0 0 0 0 0 0 0 0 0 0 0 0 0 0 0 0 0 0 0
0 0 0 0 0 0 0 0 0 0 0 0 0 0 0 0 0 0 0 0 0 0 0 0 0 0 0 0 0 0 0 0 0 0
0 0 0 0 0 0 0 0 0 0 0 0 0 0 0 0 0 0 0 0 0 0 0 0 0 0 0 0 0 0 0 0 0 0
0 0 0 0 0 0 0 0 0 0 0 0 0 0 0 0 0 0 0 0 0 0 0 0 0 0 0 0 0 0 0 0 0 0
0 0 0 0 0 0 0 0 0 0 0 0 0 0 0 0 0 0 0 0 0 0 0 0 0 0 0 0 0 0 0 0 0 0
0 0 0 0 0 0 0 0 0 0 0 0 0 0 0 0 0 0 0 0 0 0 0 0 0 0 0 0 0 0 0 0 0 0
0 0 0 0 0 0 0 0 0 0 0 0 0 0 0 0 0 0 0 0 0 0 0 0 0 0 0 0 0 0 0 0 0 0
0 0 0 0 0 0 0 0 0 0 0 0 0 0 0 0 0 0 0 0 0 0 0 0 0 0 0 0 0 0 0 0 0 0
0 0 0 0 0 0 0 0 0 0 0 0 0 0 0 0 0 0 0 0 0 0 0 0 0 0 0 0 0 0 0 0 0 0
0 0 0 0 0 0 0 0 0 0 0 0 0 0 0 0 0 0 0 0 0 0 0 0 0 0 0 0 0 0 0 0 0 0
0 0 0 0 0 0 0 0 0 0 0 0 0 0 0 0 0 0 0 0 0 0 0 0 0 0 0 0 0 0 0 0 0 0
0 0 0 0 0 0 0 0 0 0 0 0 0 0 0 0 0 0 0 0 0 0 0 0 0 0 0 0 0 0 0 0 0 0
0 0 0 0 0 0 0 0 0 0 0 0 0 0 0 0 0 0 0 0 0 0 0 0 0 0 0 0 0 0 0 0 0 0
0 0 0 0 0 0 0 0 0 0 0 0 0 0 0 0 0 0 0 0 0 0 0 0 0 0 0 0 0 0 0 0 0 0
0 0 0 0 0 0 0 0 0 0 0 0 0 0 0 0 0 0 0 0 0 0 0 0 0 0 0 0 0 0 0 0 0 0
0 0 0 0 0 0 0 0 0 0 0 0 0 0 0 0 0 0 0 0 0 0 0 0 0 0 0 0 0 0 0 0 0 0
0 0 0 0 0 0 0 0 0 0 0 0 0 0 0 0 0 0 0 0 0 0 0 0 0 0 0 0 0 0 0 0 0 0
0 0 0 0 0 0 0 0 0 0 0 0 0 0 0 0 0 0 0 0 0 0 0 0 0 0 0 0 0 0 0 0 0 0
0 0 0 0 0 0 0 0 0 0 0 0 0 0 0 0 0 0 0 0 0 0 0 0 0 0 0 0 0 0 0 0 0 0
0 0 0 0 0 0 0 0 0 0 0 0 0 0 0 0 0 0 0 0 0 0 0 0 0 0 0 0 0 0 0 0 0 0
0 0 0 0 0 0 0 0 0 0 0 0 0 0 0 0 0 0 0 0 0 0 0 0 0 0 0 0 0 0 0 0 0 0
0 0 0 0 0 0 0 0 0 0 0 0 0 0 0 0 0 0 0 0 0 0 0 0 0 0 0 0 0 0 0 0 0 0
0 0 0 0 0 0 0 0 0 0 0 0 0 0 0 0 0 0 0 0 0 0 0 0 0 0 0 0 0 0 0 0 0 0
0 0 0 0 0 0 0 0 0 0 0 0 0 0 0 0 0 0 0 0 0 0 0 0 0 0 0 0 0 0 0 0 0 0
0 0 0 0 0 0 0 0 0 0 0 0 0 0 0 0 0 0 0 0 0 0 0 0 0 0 0 0 0 0 0 0 0 0
0 0 0 0 0 0 0 0 0 0 0 0 0 0 0 0 0 0 0 0 0 0 0 0 0 0 0 0 0 0 0 0 0 0
0 0 0 0 0 0 0 0 0 0 0 0 0 0 0 0 0 0 0 0 0 0 0 0 0 0 0 0 0 0 0 0 0 0
0 0 0 0 0 0 0 0 0 0 0 0 0 0 0 0 0 0 0 0 0 0 0 0 0 0 0 0 0 0 0 0 0 0
0 0 0 0 0 0 0 0 0 0 0 0 0 0 0 0 0 0 0 0 0 0 0 0 0 0 0 0 0 0 0 0 0 0
0 0 0 0 0 0 0 0 0 0 0 0 0 0 0 0 0 0;
#X coords 0 1 1999 -1 550 200 1 0 0;
#X restore 141 247 graph;
#X obj 474 918 tabwrite~ waveform;
#X obj 474 886 bng 15 250 50 0 empty empty update_waveform 17 7 0 10
-262144 -1 -1;
#X obj 301 887 partials;
#X obj 301 837 loadbang;
#X obj 301 911 /~;
#X obj 300 936 *~ 0.8;
#X msg 302 861 40;
#X text 336 962 update waveform every time slider values change;
#X text 1192 614 vcf sends to voices;
#X text 1225 382 lfo and amp env sends to voices;
#X text 964 107 VCA;
#X text 792 107 Freq LFO;
#X text 880 325 VCF;
#X text 463 506 Harmonics;
#X msg 938 23 1;
#X obj 972 52 s vcf-sustain;
#N canvas 70 531 1341 484 preset1 1;
#X obj 279 21 inlet;
#X text 326 20 bang;
#X obj 145 73 s rate;
#X obj 224 79 s depth;
#X obj 304 90 s atk;
#X obj 362 94 s vca-decay;
#X obj 456 93 s sus;
#X obj 148 150 s cut;
#X obj 215 154 s amount;
#X obj 277 171 s resonance;
#X obj 363 170 s vcf-attack;
#X obj 469 169 s dec;
#X obj 517 169 s vcf-sustain;
#X obj 62 243 s s1;
#X obj 102 241 s s2;
#X obj 138 242 s s3;
#X obj 177 242 s s4;
#X obj 217 242 s s5;
#X obj 256 242 s s6;
#X obj 296 242 s s7;
#X obj 336 242 s s8;
#X obj 375 242 s s9;
#X obj 414 242 s s10;
#X obj 454 242 s s11;
#X obj 494 242 s s12;
#X obj 533 242 s s13;
#X obj 573 242 s s14;
#X obj 611 242 s s15;
#X obj 651 242 s s16;
#X obj 692 242 s s17;
#X obj 730 242 s s18;
#X obj 770 242 s s19;
#X obj 809 242 s s20;
#X obj 848 242 s s21;
#X obj 888 242 s s22;
#X obj 928 242 s s23;
#X obj 967 242 s s24;
#X obj 1007 242 s s25;
#X obj 1046 241 s s26;
#X obj 1085 241 s s27;
#X obj 1124 241 s s28;
#X obj 1164 241 s s29;
#X obj 1204 241 s s30;
#X obj 1243 241 s s31;
#X obj 1283 241 s s32;
#X msg 145 50 5;
#X msg 224 55 4.25;
#X msg 304 66 97.34;
#X msg 362 70 2460;
#X msg 456 68 1;
#X msg 149 126 20000;
#X msg 212 130 0;
#X msg 284 146 1;
#X msg 364 141 5, f 4;
#X msg 465 145 4000;
#X msg 517 146 1;
#X msg 66 218 1;
#X msg 139 218 0.204;
#X msg 178 197 0.023;
#X msg 218 218 0;
#X msg 258 218 0;
#X msg 297 218 0;
#X msg 337 218 0;
#X msg 376 218 0;
#X msg 415 218 0;
#X msg 457 219 0;
#X msg 501 219 0;
#X msg 534 218 0;
#X msg 574 218 0;
#X msg 612 218 0;
#X msg 652 218 0;
#X msg 692 218 0;
#X msg 731 218 0;
#X msg 771 218 0;
#X msg 810 218 0;
#X msg 849 218 0;
#X msg 889 218 0;
#X msg 929 218 0;
#X msg 968 218 0;
#X msg 1008 218 0;
#X msg 1047 217 0;
#X msg 1086 217 0;
#X msg 1125 217 0;
#X msg 1165 217 0;
#X msg 1205 217 0;
#X msg 1244 217 0;
#X msg 1284 217 0;
#X msg 95 201 0.496;
#X connect 0 0 45 0;
#X connect 0 0 49 0;
#X connect 0 0 48 0;
#X connect 0 0 47 0;
#X connect 0 0 46 0;
#X connect 0 0 50 0;
#X connect 0 0 55 0;
#X connect 0 0 54 0;
#X connect 0 0 53 0;
#X connect 0 0 52 0;
#X connect 0 0 51 0;
#X connect 0 0 7 0;
#X connect 0 0 56 0;
#X connect 0 0 86 0;
#X connect 0 0 85 0;
#X connect 0 0 84 0;
#X connect 0 0 83 0;
#X connect 0 0 82 0;
#X connect 0 0 81 0;
#X connect 0 0 80 0;
#X connect 0 0 79 0;
#X connect 0 0 78 0;
#X connect 0 0 77 0;
#X connect 0 0 76 0;
#X connect 0 0 75 0;
#X connect 0 0 74 0;
#X connect 0 0 73 0;
#X connect 0 0 72 0;
#X connect 0 0 71 0;
#X connect 0 0 70 0;
#X connect 0 0 69 0;
#X connect 0 0 68 0;
#X connect 0 0 67 0;
#X connect 0 0 66 0;
#X connect 0 0 65 0;
#X connect 0 0 64 0;
#X connect 0 0 63 0;
#X connect 0 0 62 0;
#X connect 0 0 61 0;
#X connect 0 0 60 0;
#X connect 0 0 59 0;
#X connect 0 0 58 0;
#X connect 0 0 57 0;
#X connect 0 0 87 0;
#X connect 45 0 2 0;
#X connect 46 0 3 0;
#X connect 47 0 4 0;
#X connect 48 0 5 0;
#X connect 49 0 6 0;
#X connect 50 0 7 0;
#X connect 51 0 8 0;
#X connect 52 0 9 0;
#X connect 53 0 10 0;
#X connect 54 0 11 0;
#X connect 55 0 12 0;
#X connect 56 0 13 0;
#X connect 57 0 15 0;
#X connect 58 0 16 0;
#X connect 59 0 17 0;
#X connect 60 0 18 0;
#X connect 61 0 19 0;
#X connect 62 0 20 0;
#X connect 63 0 21 0;
#X connect 64 0 22 0;
#X connect 65 0 23 0;
#X connect 66 0 24 0;
#X connect 67 0 25 0;
#X connect 68 0 26 0;
#X connect 69 0 27 0;
#X connect 70 0 28 0;
#X connect 71 0 29 0;
#X connect 72 0 30 0;
#X connect 73 0 31 0;
#X connect 74 0 32 0;
#X connect 75 0 33 0;
#X connect 76 0 34 0;
#X connect 77 0 35 0;
#X connect 78 0 36 0;
#X connect 79 0 37 0;
#X connect 80 0 38 0;
#X connect 81 0 39 0;
#X connect 82 0 40 0;
#X connect 83 0 41 0;
#X connect 84 0 42 0;
#X connect 85 0 43 0;
#X connect 86 0 44 0;
#X connect 87 0 14 0;
#X restore 1173 194 pd preset1;
#X obj 937 69 s s1;
#X floatatom 117 707 5 0 0 0 - - -;
#X floatatom 134 722 5 0 0 0 - - -;
#X floatatom 148 733 5 0 0 0 - - -;
#X floatatom 181 715 5 0 0 0 - - -;
#X floatatom 195 731 5 0 0 0 - - -;
#X floatatom 220 744 5 0 0 0 - - -;
#X obj 1173 169 bng 15 250 50 0 empty empty empty 17 7 0 10 -262144
-1 -1;
#X connect 1 0 118 0;
#X connect 1 1 7 1;
#X connect 4 0 3 0;
#X connect 4 0 130 0;
#X connect 5 0 6 0;
#X connect 5 0 129 0;
#X connect 7 0 8 0;
#X connect 8 0 9 0;
#X connect 8 1 10 1;
#X connect 8 2 10 2;
#X connect 9 0 10 0;
#X connect 10 0 13 0;
#X connect 11 0 12 0;
#X connect 11 0 131 0;
#X connect 13 0 86 0;
#X connect 14 0 15 0;
#X connect 14 0 84 0;
#X connect 14 0 101 0;
#X connect 14 0 104 0;
#X connect 14 0 106 0;
#X connect 14 0 91 0;
#X connect 14 0 92 0;
#X connect 14 0 95 0;
#X connect 14 0 94 0;
#X connect 14 0 93 0;
#X connect 14 0 109 0;
#X connect 14 0 5 0;
#X connect 14 0 11 0;
#X connect 14 0 4 0;
#X connect 14 0 152 0;
#X connect 15 0 16 0;
#X connect 18 0 26 0;
#X connect 18 0 85 0;
#X connect 18 0 139 0;
#X connect 18 0 156 0;
#X connect 19 0 27 0;
#X connect 19 0 85 1;
#X connect 19 0 139 0;
#X connect 19 0 157 0;
#X connect 20 0 28 0;
#X connect 20 0 85 2;
#X connect 20 0 139 0;
#X connect 20 0 158 0;
#X connect 21 0 29 0;
#X connect 21 0 85 3;
#X connect 21 0 139 0;
#X connect 21 0 159 0;
#X connect 22 0 30 0;
#X connect 22 0 85 4;
#X connect 22 0 139 0;
#X connect 22 0 160 0;
#X connect 22 0 161 0;
#X connect 23 0 31 0;
#X connect 23 0 85 5;
#X connect 23 0 139 0;
#X connect 24 0 32 0;
#X connect 24 0 85 6;
#X connect 24 0 139 0;
#X connect 25 0 33 0;
#X connect 25 0 85 7;
#X connect 25 0 139 0;
#X connect 34 0 58 0;
#X connect 34 0 85 8;
#X connect 34 0 139 0;
#X connect 35 0 59 0;
#X connect 35 0 85 9;
#X connect 35 0 139 0;
#X connect 36 0 60 0;
#X connect 36 0 85 10;
#X connect 36 0 139 0;
#X connect 37 0 62 0;
#X connect 37 0 85 11;
#X connect 37 0 139 0;
#X connect 38 0 63 0;
#X connect 38 0 85 12;
#X connect 38 0 139 0;
#X connect 39 0 64 0;
#X connect 39 0 85 13;
#X connect 39 0 139 0;
#X connect 40 0 61 0;
#X connect 40 0 85 14;
#X connect 40 0 139 0;
#X connect 41 0 65 0;
#X connect 41 0 85 15;
#X connect 41 0 139 0;
#X connect 42 0 66 0;
#X connect 42 0 85 16;
#X connect 42 0 139 0;
#X connect 43 0 67 0;
#X connect 43 0 85 17;
#X connect 43 0 139 0;
#X connect 44 0 68 0;
#X connect 44 0 85 18;
#X connect 44 0 139 0;
#X connect 45 0 69 0;
#X connect 45 0 85 19;
#X connect 45 0 139 0;
#X connect 46 0 70 0;
#X connect 46 0 85 20;
#X connect 46 0 139 0;
#X connect 47 0 71 0;
#X connect 47 0 85 21;
#X connect 47 0 139 0;
#X connect 48 0 72 0;
#X connect 48 0 85 22;
#X connect 48 0 139 0;
#X connect 49 0 73 0;
#X connect 49 0 85 23;
#X connect 49 0 139 0;
#X connect 50 0 74 0;
#X connect 50 0 85 24;
#X connect 50 0 139 0;
#X connect 51 0 75 0;
#X connect 51 0 85 25;
#X connect 51 0 139 0;
#X connect 52 0 76 0;
#X connect 52 0 85 26;
#X connect 52 0 139 0;
#X connect 53 0 77 0;
#X connect 53 0 85 27;
#X connect 53 0 139 0;
#X connect 54 0 78 0;
#X connect 54 0 85 28;
#X connect 54 0 139 0;
#X connect 55 0 79 0;
#X connect 55 0 85 29;
#X connect 55 0 139 0;
#X connect 56 0 80 0;
#X connect 56 0 85 30;
#X connect 56 0 139 0;
#X connect 57 0 81 0;
#X connect 57 0 85 31;
#X connect 57 0 139 0;
#X connect 82 0 18 0;
#X connect 82 0 56 0;
#X connect 82 0 54 0;
#X connect 82 0 52 0;
#X connect 82 0 50 0;
#X connect 82 0 48 0;
#X connect 82 0 46 0;
#X connect 82 0 44 0;
#X connect 82 0 42 0;
#X connect 82 0 40 0;
#X connect 82 0 38 0;
#X connect 82 0 36 0;
#X connect 82 0 34 0;
#X connect 82 0 24 0;
#X connect 82 0 22 0;
#X connect 82 0 20 0;
#X connect 83 0 57 0;
#X connect 83 0 55 0;
#X connect 83 0 53 0;
#X connect 83 0 51 0;
#X connect 83 0 49 0;
#X connect 83 0 47 0;
#X connect 83 0 45 0;
#X connect 83 0 43 0;
#X connect 83 0 41 0;
#X connect 83 0 39 0;
#X connect 83 0 37 0;
#X connect 83 0 35 0;
#X connect 83 0 25 0;
#X connect 83 0 23 0;
#X connect 83 0 21 0;
#X connect 83 0 19 0;
#X connect 85 0 86 1;
#X connect 85 0 88 0;
#X connect 85 0 142 1;
#X connect 86 0 89 0;
#X connect 89 0 2 0;
#X connect 91 0 96 0;
#X connect 91 0 103 0;
#X connect 92 0 97 0;
#X connect 92 0 132 0;
#X connect 93 0 98 0;
#X connect 93 0 134 0;
#X connect 94 0 100 0;
#X connect 94 0 136 0;
#X connect 95 0 99 0;
#X connect 95 0 135 0;
#X connect 101 0 102 0;
#X connect 106 0 105 0;
#X connect 107 0 96 0;
#X connect 107 0 97 0;
#X connect 107 0 98 0;
#X connect 107 0 100 0;
#X connect 107 0 99 0;
#X connect 107 0 110 0;
#X connect 109 0 111 0;
#X connect 109 0 133 0;
#X connect 111 0 115 0;
#X connect 112 0 114 0;
#X connect 113 0 110 0;
#X connect 114 0 111 1;
#X connect 115 0 113 0;
#X connect 116 0 117 0;
#X connect 116 0 126 0;
#X connect 118 0 7 0;
#X connect 121 0 122 0;
#X connect 121 0 125 0;
#X connect 125 0 124 0;
#X connect 126 0 123 0;
#X connect 127 0 116 0;
#X connect 127 0 121 0;
#X connect 139 0 138 0;
#X connect 140 0 142 0;
#X connect 141 0 144 0;
#X connect 142 0 143 0;
#X connect 143 0 138 0;
#X connect 144 0 140 0;
#X connect 152 0 153 0;
#X connect 152 0 155 0;
#X connect 162 0 154 0;
#X coords 0 -1 1 1 1000 600 2 100 100;
