#N canvas 383 44 1817 981 12;
#X declare -lib ceammc;
#X declare -lib cyclone;
#X obj 109 105 cnv 15 980 490 empty empty empty 20 12 0 14 -262079
-66577 0;
#X obj 32 548 notein, f 8;
#X obj 136 134 volume-control;
#X obj 476 401 s decay;
#X obj 477 232 vsl 15 128 5 6000 0 0 empty empty Decay 0 -9 0 10 -204786
-1 -1 5300 1;
#X obj 396 232 vsl 15 128 3 2000 0 0 empty empty Attack 0 -9 0 10 -262130
-1 -1 900 1;
#X obj 395 401 s attack;
#X obj 28 612 pack f f;
#X obj 27 647 poly 16;
#X obj 22 686 - 1;
#X obj 22 726 pack f f f;
#X obj 553 232 vsl 15 128 0 1 0 0 empty sus Sustain 0 -9 0 10 -204800
-1 -1 12700 1;
#X obj 552 400 s sustain;
#X obj 22 779 clone voice2.cl 16;
#X obj 743 12 loadbang;
#X msg 706 39 1;
#X obj 706 63 s sus;
#X text 409 732 send amp envelope info to voices;
#X obj 190 447 vsl 15 128 0 1 0 0 empty sus empty 0 -9 0 10 -250907
-1 -1 12700 1;
#X obj 211 447 vsl 15 128 0 1 0 0 empty empty empty 0 -9 0 10 -242717
-1 -1 3100 1;
#X obj 233 447 vsl 15 128 0 1 0 0 empty empty empty 0 -9 0 10 -242781
-1 -1 3500 1;
#X obj 254 447 vsl 15 128 0 1 0 0 empty empty empty 0 -9 0 10 -230495
-1 -1 2900 1;
#X obj 274 447 vsl 15 128 0 1 0 0 empty empty empty 0 -9 0 10 -242781
-1 -1 0 1;
#X obj 295 447 vsl 15 128 0 1 0 0 empty empty empty 0 -9 0 10 -222369
-1 -1 0 1;
#X obj 316 447 vsl 15 128 0 1 0 0 empty empty empty 0 -9 0 10 -230495
-1 -1 0 1;
#X obj 337 447 vsl 15 128 0 1 0 0 empty empty empty 0 -9 0 10 -210083
-1 -1 4900 1;
#X obj 247 633 s p1;
#X obj 259 656 s p2;
#X obj 269 676 s p3;
#X obj 299 645 s p4;
#X obj 309 670 s p5;
#X obj 325 695 s p6;
#X obj 355 650 s p7;
#X obj 361 674 s p8;
#X obj 359 447 vsl 15 128 0 1 0 0 empty empty empty 0 -9 0 10 -214179
-1 -1 0 1;
#X obj 380 447 vsl 15 128 0 1 0 0 empty empty empty 0 -9 0 10 -201956
-1 -1 0 1;
#X obj 402 447 vsl 15 128 0 1 0 0 empty empty empty 0 -9 0 10 -201956
-1 -1 0 1;
#X obj 423 447 vsl 15 128 0 1 0 0 empty empty empty 0 -9 0 10 -185640
-1 -1 0 1;
#X obj 443 447 vsl 15 128 0 1 0 0 empty empty empty 0 -9 0 10 -189735
-1 -1 0 1;
#X obj 464 447 vsl 15 128 0 1 0 0 empty empty empty 0 -9 0 10 -181545
-1 -1 900 1;
#X obj 485 447 vsl 15 128 0 1 0 0 empty empty empty 0 -9 0 10 -169323
-1 -1 0 1;
#X obj 506 447 vsl 15 128 0 1 0 0 empty empty empty 0 -9 0 10 -165228
-1 -1 1300 1;
#X obj 529 447 vsl 15 128 0 1 0 0 empty empty empty 0 -9 0 10 -148912
-1 -1 0 1;
#X obj 550 447 vsl 15 128 0 1 0 0 empty empty empty 0 -9 0 10 -157038
-1 -1 500 1;
#X obj 572 447 vsl 15 128 0 1 0 0 empty empty empty 0 -9 0 10 -144816
-1 -1 0 1;
#X obj 593 447 vsl 15 128 0 1 0 0 empty empty empty 0 -9 0 10 -136691
-1 -1 0 1;
#X obj 613 447 vsl 15 128 0 1 0 0 empty empty empty 0 -9 0 10 -132596
-1 -1 0 1;
#X obj 634 447 vsl 15 128 0 1 0 0 empty empty empty 0 -9 0 10 -124406
-1 -1 0 1;
#X obj 655 447 vsl 15 128 0 1 0 0 empty empty empty 0 -9 0 10 -116280
-1 -1 1700 1;
#X obj 676 447 vsl 15 128 0 1 0 0 empty empty empty 0 -9 0 10 -108090
-1 -1 1300 1;
#X obj 699 447 vsl 15 128 0 1 0 0 empty empty empty 0 -9 0 10 -104059
-1 -1 700 1;
#X obj 720 447 vsl 15 128 0 1 0 0 empty empty empty 0 -9 0 10 -104059
-1 -1 1300 1;
#X obj 742 447 vsl 15 128 0 1 0 0 empty empty empty 0 -9 0 10 -99964
-1 -1 700 1;
#X obj 763 447 vsl 15 128 0 1 0 0 empty empty empty 0 -9 0 10 -95868
-1 -1 0 1;
#X obj 783 447 vsl 15 128 0 1 0 0 empty empty empty 0 -9 0 10 -95869
-1 -1 0 1;
#X obj 804 447 vsl 15 128 0 1 0 0 empty empty empty 0 -9 0 10 -95869
-1 -1 0 1;
#X obj 825 447 vsl 15 128 0 1 0 0 empty empty empty 0 -9 0 10 -87677
-1 -1 0 1;
#X obj 846 447 vsl 15 128 0 1 0 0 empty empty empty 0 -9 0 10 -87613
-1 -1 0 1;
#X obj 399 644 s p9;
#X obj 411 667 s p10;
#X obj 421 687 s p11;
#X obj 507 661 s p15;
#X obj 451 656 s p12;
#X obj 461 681 s p13;
#X obj 477 706 s p14;
#X obj 513 685 s p16;
#X obj 569 644 s p17;
#X obj 581 667 s p18;
#X obj 591 687 s p19;
#X obj 621 656 s p20;
#X obj 631 681 s p21;
#X obj 647 706 s p22;
#X obj 677 661 s p23;
#X obj 683 685 s p24;
#X obj 739 644 s p25;
#X obj 751 667 s p26;
#X obj 761 687 s p27;
#X obj 791 656 s p28;
#X obj 801 681 s p29;
#X obj 817 706 s p30;
#X obj 847 661 s p31;
#X obj 853 685 s p32;
#X obj 932 447 vsl 15 128 0 1 0 0 empty empty Odd 0 -9 0 10 -261234
-1 -1 0 1;
#X obj 995 447 vsl 15 128 0 1 0 0 empty empty Even 0 -9 0 10 -203904
-1 -1 0 1;
#X text 1121 491 sliders for even and odd harmonics;
#X msg 776 47 \; pd dsp 1;
#N canvas 377 643 501 317 four-bangs 0;
#X obj 191 110 bng 15 250 50 0 empty empty empty 17 7 0 10 -262144
-1 -1;
#X msg 208 159 stop;
#X obj 195 239 bng 15 250 50 0 empty empty empty 17 7 0 10 -262144
-1 -1;
#X obj 193 192 metro 500;
#X obj 206 130 del 2000;
#X obj 143 69 spigot;
#X obj 220 40 tgl 15 0 empty sus empty 17 7 0 10 -262144 -1 -1 1 1
;
#X obj 140 27 bng 15 250 50 0 empty empty empty 17 7 0 10 -262144 -1
-1;
#X obj 114 246 outlet;
#X text 52 2 bang;
#X text 269 41 sends exactly 4 bangs spaced 500 ms apart.;
#X obj 84 43 inlet;
#X connect 0 0 3 0;
#X connect 0 0 4 0;
#X connect 0 0 6 0;
#X connect 1 0 3 0;
#X connect 3 0 2 0;
#X connect 3 0 8 0;
#X connect 4 0 1 0;
#X connect 4 0 6 0;
#X connect 5 0 0 0;
#X connect 6 0 5 1;
#X connect 7 0 5 0;
#X connect 11 0 5 0;
#X restore 1263 397 pd four-bangs;
#N canvas 391 209 1487 733 harmonic-vol-control 0;
#X floatatom 339 391 5 0 0 0 - - -;
#X text 34 9 signal from oscillators;
#X obj 285 424 sqrt;
#X floatatom 285 448 5 0 0 0 - - -;
#X obj 137 469 outlet;
#X obj 221 42 inlet;
#X obj 261 42 inlet;
#X obj 302 42 inlet;
#X obj 342 42 inlet;
#X obj 381 42 inlet;
#X obj 421 42 inlet;
#X obj 462 42 inlet;
#X obj 502 42 inlet;
#X obj 541 42 inlet;
#X obj 581 42 inlet;
#X obj 622 42 inlet;
#X obj 662 42 inlet;
#X obj 701 42 inlet;
#X obj 741 42 inlet;
#X obj 782 42 inlet;
#X obj 822 42 inlet;
#X obj 861 41 inlet;
#X obj 901 41 inlet;
#X obj 942 41 inlet;
#X obj 982 41 inlet;
#X obj 1022 41 inlet;
#X obj 1061 41 inlet;
#X obj 1102 41 inlet;
#X obj 1142 41 inlet;
#X obj 1181 41 inlet;
#X obj 1221 41 inlet;
#X obj 1262 42 inlet;
#X obj 1302 41 inlet;
#X obj 1341 41 inlet;
#X obj 1381 41 inlet;
#X obj 1422 41 inlet;
#X obj 1462 41 inlet;
#X obj 294 350 ++;
#X obj 313 329 ++;
#X obj 331 308 ++;
#X obj 349 287 ++;
#X obj 367 265 ++;
#X obj 385 244 ++;
#X obj 403 223 ++;
#X obj 421 202 ++;
#X obj 606 358 ++;
#X obj 624 337 ++;
#X obj 642 316 ++;
#X obj 660 295 ++;
#X obj 678 273 ++;
#X obj 696 252 ++;
#X obj 714 231 ++;
#X obj 732 210 ++;
#X obj 938 362 ++;
#X obj 956 341 ++;
#X obj 974 320 ++;
#X obj 992 299 ++;
#X obj 1010 277 ++;
#X obj 1028 256 ++;
#X obj 1046 235 ++;
#X obj 1064 214 ++;
#X obj 1256 367 ++;
#X obj 1274 346 ++;
#X obj 1292 325 ++;
#X obj 1310 304 ++;
#X obj 1328 282 ++;
#X obj 1346 261 ++;
#X obj 1364 240 ++;
#X connect 2 0 3 0;
#X connect 2 0 4 0;
#X connect 5 0 37 0;
#X connect 6 0 38 0;
#X connect 7 0 39 0;
#X connect 8 0 40 0;
#X connect 9 0 41 0;
#X connect 10 0 42 0;
#X connect 11 0 43 0;
#X connect 12 0 44 0;
#X connect 13 0 45 0;
#X connect 14 0 46 0;
#X connect 15 0 47 0;
#X connect 16 0 48 0;
#X connect 17 0 49 0;
#X connect 18 0 50 0;
#X connect 19 0 51 0;
#X connect 20 0 52 0;
#X connect 21 0 53 0;
#X connect 22 0 54 0;
#X connect 23 0 55 0;
#X connect 24 0 56 0;
#X connect 25 0 57 0;
#X connect 26 0 58 0;
#X connect 27 0 59 0;
#X connect 28 0 60 0;
#X connect 29 0 61 0;
#X connect 30 0 62 0;
#X connect 31 0 63 0;
#X connect 32 0 64 0;
#X connect 33 0 65 0;
#X connect 34 0 66 0;
#X connect 35 0 67 0;
#X connect 36 0 67 1;
#X connect 37 0 0 0;
#X connect 37 0 2 0;
#X connect 38 0 37 1;
#X connect 39 0 38 1;
#X connect 40 0 39 1;
#X connect 41 0 40 1;
#X connect 42 0 41 1;
#X connect 43 0 42 1;
#X connect 44 0 43 1;
#X connect 45 0 44 1;
#X connect 46 0 45 1;
#X connect 47 0 46 1;
#X connect 48 0 47 1;
#X connect 49 0 48 1;
#X connect 50 0 49 1;
#X connect 51 0 50 1;
#X connect 52 0 51 1;
#X connect 53 0 52 1;
#X connect 54 0 53 1;
#X connect 55 0 54 1;
#X connect 56 0 55 1;
#X connect 57 0 56 1;
#X connect 58 0 57 1;
#X connect 59 0 58 1;
#X connect 60 0 59 1;
#X connect 61 0 60 1;
#X connect 62 0 61 1;
#X connect 63 0 62 1;
#X connect 64 0 63 1;
#X connect 65 0 64 1;
#X connect 66 0 65 1;
#X connect 67 0 66 1;
#X restore 1002 700 pd harmonic-vol-control;
#X f 63;
#X obj 21 877 /~;
#X text 37 818 divide by sqrt of sum of volume sliders;
#X floatatom 1002 726 5 0 0 0 - - -;
#X obj 21 901 *~ 0.5;
#X text 994 768 take sqrt of sum of volume sliders to keep levels constant
;
#X obj 682 232 vsl 15 128 50 20000 0 0 empty cut Cutoff 0 -9 0 10 -203904
-1 -1 900 1;
#X obj 742 232 vsl 15 128 0 19980 0 0 empty empty Amount 0 -9 0 10
-232576 -1 -1 5200 1;
#X obj 864 232 vsl 15 128 5 4000 0 0 empty empty Attack 0 -9 0 10 -261682
-1 -1 6300 1;
#X obj 989 232 vsl 15 128 0 1 0 0 empty sus Sustain 0 -9 0 10 -204786
-1 -1 0 1;
#X obj 926 232 vsl 15 128 3 4000 0 0 empty dec Decay 0 -9 0 10 -262130
-1 -1 3400 1;
#X obj 667 403 s cutoff;
#X obj 743 388 s amt;
#X obj 851 391 s vcf-atk;
#X obj 924 391 s vcf-dec;
#X obj 999 391 s vcf-sus;
#X msg 640 33 20000;
#X obj 640 57 s cut;
#X floatatom 664 368 7 0 0 0 - - -;
#X msg 706 39;
#X obj 875 63 s dec;
#X msg 875 39 4000;
#X obj 743 410 loadbang;
#X obj 1183 78 declare -lib ceammc;
#X obj 802 232 vsl 15 128 1 15 0 0 empty empty Resonance 0 -9 0 10
-261234 -1 -1 7100 1;
#X obj 805 391 s res;
#X obj 1280 234 log;
#X obj 1307 175 loadbang;
#X floatatom 1279 287 5 0 0 0 - - -;
#X msg 1307 199 5;
#X obj 1280 258 / 1.682;
#X obj 185 232 vsl 15 128 0 8 0 0 empty empty LFO_Rate 0 -9 0 10 -261234
-1 -1 6800 1;
#X floatatom 177 367 5 0 0 0 - - -;
#X obj 32 580 mtof;
#X text 22 746 polyphonic voice management;
#X text 141 10 midi in;
#X obj 281 232 vsl 15 128 0 12 0 0 empty empty LFO_Depth 0 -9 0 10
-261682 -1 -1 1100 1;
#X floatatom 273 367 5 0 0 0 - - -;
#X obj 184 418 s lfo-rate;
#X obj 281 413 s lfo-depth;
#X obj 280 388 line \$1 100;
#X obj 184 392 line \$1 100;
#X obj 538 31 loadbang;
#X obj 1196 38 declare -lib cyclone;
#X floatatom 387 368 5 0 0 0 - - -;
#X floatatom 468 368 5 0 0 0 - - -;
#X floatatom 544 368 5 0 0 0 - - -;
#X floatatom 726 368 7 0 0 0 - - -;
#X floatatom 792 368 5 0 0 0 - - -;
#X floatatom 855 368 5 0 0 0 - - -;
#X floatatom 917 368 5 0 0 0 - - -;
#X floatatom 979 368 5 0 0 0 - - -;
#X connect 1 0 120 0;
#X connect 1 1 7 1;
#X connect 4 0 3 0;
#X connect 4 0 132 0;
#X connect 5 0 6 0;
#X connect 5 0 131 0;
#X connect 7 0 8 0;
#X connect 8 0 9 0;
#X connect 8 1 10 1;
#X connect 8 2 10 2;
#X connect 9 0 10 0;
#X connect 10 0 13 0;
#X connect 11 0 12 0;
#X connect 11 0 133 0;
#X connect 13 0 88 0;
#X connect 14 0 15 0;
#X connect 14 0 85 0;
#X connect 14 0 103 0;
#X connect 14 0 106 0;
#X connect 14 0 108 0;
#X connect 14 0 93 0;
#X connect 14 0 94 0;
#X connect 14 0 97 0;
#X connect 14 0 96 0;
#X connect 14 0 95 0;
#X connect 14 0 111 0;
#X connect 14 0 5 0;
#X connect 14 0 11 0;
#X connect 14 0 4 0;
#X connect 15 0 16 0;
#X connect 18 0 26 0;
#X connect 18 0 87 0;
#X connect 19 0 27 0;
#X connect 19 0 87 1;
#X connect 20 0 28 0;
#X connect 20 0 87 2;
#X connect 21 0 29 0;
#X connect 21 0 87 3;
#X connect 22 0 30 0;
#X connect 22 0 87 4;
#X connect 23 0 31 0;
#X connect 23 0 87 5;
#X connect 24 0 32 0;
#X connect 24 0 87 6;
#X connect 25 0 33 0;
#X connect 25 0 87 7;
#X connect 34 0 58 0;
#X connect 34 0 87 8;
#X connect 35 0 59 0;
#X connect 35 0 87 9;
#X connect 36 0 60 0;
#X connect 36 0 87 10;
#X connect 37 0 62 0;
#X connect 37 0 87 11;
#X connect 38 0 63 0;
#X connect 38 0 87 12;
#X connect 39 0 64 0;
#X connect 39 0 87 13;
#X connect 40 0 61 0;
#X connect 40 0 87 14;
#X connect 41 0 65 0;
#X connect 41 0 87 15;
#X connect 42 0 66 0;
#X connect 42 0 87 16;
#X connect 43 0 67 0;
#X connect 43 0 87 17;
#X connect 44 0 68 0;
#X connect 44 0 87 18;
#X connect 45 0 69 0;
#X connect 45 0 87 19;
#X connect 46 0 70 0;
#X connect 46 0 87 20;
#X connect 47 0 71 0;
#X connect 47 0 87 21;
#X connect 48 0 72 0;
#X connect 48 0 87 22;
#X connect 49 0 73 0;
#X connect 49 0 87 23;
#X connect 50 0 74 0;
#X connect 50 0 87 24;
#X connect 51 0 75 0;
#X connect 51 0 87 25;
#X connect 52 0 76 0;
#X connect 52 0 87 26;
#X connect 53 0 77 0;
#X connect 53 0 87 27;
#X connect 54 0 78 0;
#X connect 54 0 87 28;
#X connect 55 0 79 0;
#X connect 55 0 87 29;
#X connect 56 0 80 0;
#X connect 56 0 87 30;
#X connect 57 0 81 0;
#X connect 57 0 87 31;
#X connect 82 0 18 0;
#X connect 82 0 56 0;
#X connect 82 0 54 0;
#X connect 82 0 52 0;
#X connect 82 0 50 0;
#X connect 82 0 48 0;
#X connect 82 0 46 0;
#X connect 82 0 44 0;
#X connect 82 0 42 0;
#X connect 82 0 40 0;
#X connect 82 0 38 0;
#X connect 82 0 36 0;
#X connect 82 0 34 0;
#X connect 82 0 24 0;
#X connect 82 0 22 0;
#X connect 82 0 20 0;
#X connect 83 0 57 0;
#X connect 83 0 55 0;
#X connect 83 0 53 0;
#X connect 83 0 51 0;
#X connect 83 0 49 0;
#X connect 83 0 47 0;
#X connect 83 0 45 0;
#X connect 83 0 43 0;
#X connect 83 0 41 0;
#X connect 83 0 39 0;
#X connect 83 0 37 0;
#X connect 83 0 35 0;
#X connect 83 0 25 0;
#X connect 83 0 23 0;
#X connect 83 0 21 0;
#X connect 83 0 19 0;
#X connect 87 0 88 1;
#X connect 87 0 90 0;
#X connect 88 0 91 0;
#X connect 91 0 2 0;
#X connect 93 0 98 0;
#X connect 93 0 105 0;
#X connect 94 0 99 0;
#X connect 94 0 134 0;
#X connect 95 0 100 0;
#X connect 95 0 136 0;
#X connect 96 0 102 0;
#X connect 96 0 138 0;
#X connect 97 0 101 0;
#X connect 97 0 137 0;
#X connect 103 0 104 0;
#X connect 108 0 107 0;
#X connect 109 0 98 0;
#X connect 109 0 99 0;
#X connect 109 0 100 0;
#X connect 109 0 102 0;
#X connect 109 0 101 0;
#X connect 109 0 112 0;
#X connect 111 0 113 0;
#X connect 111 0 135 0;
#X connect 113 0 117 0;
#X connect 114 0 116 0;
#X connect 115 0 112 0;
#X connect 116 0 113 1;
#X connect 117 0 115 0;
#X connect 118 0 119 0;
#X connect 118 0 128 0;
#X connect 120 0 7 0;
#X connect 123 0 124 0;
#X connect 123 0 127 0;
#X connect 127 0 126 0;
#X connect 128 0 125 0;
#X connect 129 0 118 0;
#X connect 129 0 123 0;
#X coords 0 -1 1 1 1000 500 2 100 100;
