#N canvas 600 153 838 677 12;
#X obj 100 211 bng 15 250 50 0 empty empty empty 17 7 0 10 -262144
-1 -1;
#X obj 338 420 line~;
#X obj 395 495 *~;
#X obj 395 519 *~;
#X floatatom 428 129 5 0 0 0 - - -;
#X obj 433 103 r decay;
#X text 490 100 receive decay info;
#X obj 118 279 r attack;
#X text 103 256 receive attack info;
#X obj 107 125 spigot;
#X floatatom 131 308 5 0 0 0 - - -;
#X obj 56 302 pack 1 3;
#X obj 342 118 select 0;
#X text 312 70 trigger decay when note off received.;
#X text 161 128 ignore note off;
#X obj 573 288 r sustain;
#X obj 469 248 r attack;
#X obj 517 343 r decay;
#X floatatom 584 316 5 0 0 0 - - -;
#X obj 83 57 inlet;
#X obj 219 52 inlet;
#X text 212 34 velocity;
#X text 48 34 note # and bang;
#X obj 353 580 outlet~;
#X obj 380 174 pack 0 3;
#X obj 447 367 pack 1 3;
#X obj 439 273 del 3;
#X text 427 224 decay to sustain value after attack;
#X obj 497 286 *;
#X obj 497 310 / 128;
#X obj 231 373 tgl 15 0 empty empty empty 17 7 0 10 -262144 -1 -1 0
1;
#X obj 443 480 tgl 15 0 empty empty empty 17 7 0 10 -262144 -1 -1 1
1;
#X obj 395 543 *~;
#X text 480 481 starts on \, turned off by attack \, back on again
by note off;
#X text 38 628 starts off \, turned on by attack \, back off again
by note off;
#X obj 251 469 *~;
#X obj 481 425 loadbang;
#X text 483 459 exponential decay;
#X text 87 482 linear attack;
#X obj 174 427 *~;
#X obj 231 417 line~;
#X obj 442 525 line~;
#X obj 231 393 pack f f;
#X obj 443 500 pack f f;
#X obj 542 625 *~;
#X obj 594 591 *~;
#X obj 590 555 *~;
#X obj 642 569 tgl 15 0 empty empty empty 17 7 0 10 -262144 -1 -1 0
1;
#X connect 0 0 11 0;
#X connect 0 0 26 0;
#X connect 0 0 30 0;
#X connect 0 0 31 0;
#X connect 1 0 2 0;
#X connect 1 0 2 1;
#X connect 1 0 35 1;
#X connect 2 0 3 0;
#X connect 2 0 3 1;
#X connect 3 0 32 0;
#X connect 4 0 24 1;
#X connect 5 0 4 0;
#X connect 7 0 10 0;
#X connect 7 0 11 1;
#X connect 9 0 0 0;
#X connect 11 0 1 0;
#X connect 12 0 31 0;
#X connect 12 0 30 0;
#X connect 12 0 24 0;
#X connect 15 0 18 0;
#X connect 15 0 28 1;
#X connect 16 0 26 1;
#X connect 17 0 25 1;
#X connect 17 0 42 1;
#X connect 17 0 43 1;
#X connect 19 0 9 0;
#X connect 20 0 9 1;
#X connect 20 0 12 0;
#X connect 20 0 28 0;
#X connect 24 0 1 0;
#X connect 25 0 1 0;
#X connect 26 0 25 0;
#X connect 28 0 29 0;
#X connect 29 0 25 0;
#X connect 30 0 42 0;
#X connect 31 0 43 0;
#X connect 32 0 23 0;
#X connect 35 0 23 0;
#X connect 36 0 31 0;
#X connect 40 0 35 0;
#X connect 41 0 32 1;
#X connect 42 0 40 0;
#X connect 43 0 41 0;
#X connect 45 0 44 1;
#X connect 46 0 45 0;
#X connect 47 0 45 1;
