#N canvas 981 126 912 640 12;
#X obj 100 211 bng 15 250 50 0 empty empty empty 17 7 0 10 -262144
-1 -1;
#X floatatom 428 129 5 0 0 0 - - -;
#X obj 433 103 r decay;
#X text 490 100 receive decay info;
#X obj 118 279 r attack;
#X text 103 256 receive attack info;
#X obj 107 125 spigot;
#X floatatom 131 308 5 0 0 0 - - -;
#X obj 56 302 pack 1 3;
#X obj 342 118 select 0;
#X text 312 70 trigger decay when note off received.;
#X text 161 128 ignore note off;
#X obj 573 288 r sustain;
#X obj 469 248 r attack;
#X obj 517 343 r decay;
#X floatatom 584 316 5 0 0 0 - - -;
#X obj 83 57 inlet;
#X obj 219 52 inlet;
#X text 212 34 velocity;
#X text 48 34 note # and bang;
#X obj 339 630 outlet~;
#X obj 380 174 pack 0 3;
#X obj 447 367 pack 1 3;
#X obj 439 273 del 3;
#X text 427 224 decay to sustain value after attack;
#X obj 497 286 *;
#X obj 497 310 / 128;
#X obj 228 447 tgl 15 0 empty empty empty 17 7 0 10 -262144 -1 -1 0
1;
#X obj 441 457 tgl 15 0 empty empty empty 17 7 0 10 -262144 -1 -1 1
1;
#X text 534 472 starts on \, turned off by attack \, back on again
by note off;
#X text -182 500 starts off \, turned on by attack \, back off again
by note off;
#X obj 481 425 loadbang;
#X text 537 450 exponential decay;
#X text 87 482 linear attack;
#X obj 174 427 *~;
#X obj 517 367 / 2;
#X obj 358 495 linedrive 1 1.05;
#X obj 338 420 line;
#X obj 273 486 *;
#X obj 377 525 *;
#X obj 339 575 +;
#X obj 339 599 sig~;
#X obj 102 556 float;
#X floatatom 61 556 5 0 0 0 - - -;
#X obj 159 602 linedrive 1 1.05;
#X obj 124 637 -;
#X msg 124 661 \$1;
#X obj 256 416 del 2;
#X obj 169 686 del 1;
#X text 184 713 set line obj to (cur-vol - linedrive(cur-vol));
#X connect 0 0 8 0;
#X connect 0 0 23 0;
#X connect 0 0 27 0;
#X connect 0 0 28 0;
#X connect 1 0 21 1;
#X connect 2 0 1 0;
#X connect 4 0 7 0;
#X connect 4 0 8 1;
#X connect 6 0 0 0;
#X connect 8 0 37 0;
#X connect 9 0 28 0;
#X connect 9 0 21 0;
#X connect 9 0 47 0;
#X connect 9 0 48 0;
#X connect 9 0 42 0;
#X connect 12 0 15 0;
#X connect 12 0 25 1;
#X connect 13 0 23 1;
#X connect 14 0 22 1;
#X connect 14 0 35 0;
#X connect 16 0 6 0;
#X connect 17 0 6 1;
#X connect 17 0 9 0;
#X connect 17 0 25 0;
#X connect 21 0 37 0;
#X connect 22 0 37 0;
#X connect 23 0 22 0;
#X connect 25 0 26 0;
#X connect 26 0 22 0;
#X connect 27 0 38 0;
#X connect 31 0 28 0;
#X connect 37 0 38 1;
#X connect 38 0 40 0;
#X connect 38 0 42 0;
#X connect 39 0 40 1;
#X connect 40 0 41 0;
#X connect 41 0 20 0;
#X connect 42 0 43 0;
#X connect 42 0 45 0;
#X connect 42 0 44 0;
#X connect 44 0 45 1;
#X connect 45 0 46 0;
#X connect 46 0 37 0;
#X connect 47 0 27 0;
#X connect 48 0 46 0;
