#N canvas 0 23 450 300 12;
#X obj 32 314 osc~;
#X obj 34 374 *~, f 2;
#X obj 38 338 r p1;
#X text 562 15 frequency;
#X obj 604 569 outlet~;
#X obj 72 314 osc~;
#X obj 74 374 *~, f 2;
#X obj 113 314 osc~;
#X obj 115 374 *~, f 2;
#X obj 153 314 osc~;
#X obj 155 374 *~, f 2;
#X obj 192 314 osc~;
#X obj 194 374 *~, f 2;
#X obj 232 314 osc~;
#X obj 234 374 *~, f 2;
#X obj 273 314 osc~;
#X obj 275 374 *~, f 2;
#X obj 313 314 osc~;
#X obj 315 374 *~, f 2;
#X obj 352 314 osc~;
#X obj 354 374 *~, f 2;
#X obj 392 314 osc~;
#X obj 394 374 *~, f 2;
#X obj 433 314 osc~;
#X obj 435 374 *~, f 2;
#X obj 473 314 osc~;
#X obj 475 374 *~, f 2;
#X obj 512 314 osc~;
#X obj 514 374 *~, f 2;
#X obj 552 314 osc~;
#X obj 554 374 *~, f 2;
#X obj 593 314 osc~;
#X obj 595 374 *~, f 2;
#X obj 633 314 osc~;
#X obj 635 374 *~, f 2;
#X obj 672 313 osc~;
#X obj 674 373 *~, f 2;
#X obj 712 313 osc~;
#X obj 714 373 *~, f 2;
#X obj 753 313 osc~;
#X obj 755 373 *~, f 2;
#X obj 793 313 osc~;
#X obj 795 373 *~, f 2;
#X obj 832 313 osc~;
#X obj 834 373 *~, f 2;
#X obj 872 313 osc~;
#X obj 874 373 *~, f 2;
#X obj 913 313 osc~;
#X obj 915 373 *~, f 2;
#X obj 953 313 osc~;
#X obj 955 373 *~, f 2;
#X obj 992 313 osc~;
#X obj 994 373 *~, f 2;
#X obj 1032 313 osc~;
#X obj 1034 373 *~, f 2;
#X obj 1073 313 osc~;
#X obj 1075 373 *~, f 2;
#X obj 1113 313 osc~;
#X obj 1115 373 *~, f 2;
#X obj 1152 313 osc~;
#X obj 1154 373 *~, f 2;
#X obj 1192 313 osc~;
#X obj 1194 373 *~, f 2;
#X obj 1233 313 osc~;
#X obj 1235 373 *~, f 2;
#X obj 1273 313 osc~;
#X obj 1275 373 *~, f 2;
#X obj 78 338 r p2;
#X obj 119 338 r p3;
#X obj 159 338 r p4;
#X obj 198 338 r p5;
#X obj 238 338 r p6;
#X obj 279 338 r p7;
#X obj 319 338 r p8;
#X obj 358 338 r p9;
#X obj 398 338 r p10;
#X obj 439 338 r p11;
#X obj 479 338 r p12;
#X obj 518 338 r p13;
#X obj 558 338 r p14;
#X obj 599 338 r p15;
#X obj 639 338 r p16;
#X obj 678 337 r p17;
#X obj 718 337 r p18;
#X obj 759 337 r p19;
#X obj 799 337 r p20;
#X obj 838 337 r p21;
#X obj 878 337 r p22;
#X obj 919 337 r p23;
#X obj 959 337 r p24;
#X obj 998 337 r p25;
#X obj 1038 337 r p26;
#X obj 1079 337 r p27;
#X obj 1119 337 r p28;
#X obj 1158 337 r p29;
#X obj 1198 337 r p30;
#X obj 1239 337 r p31;
#X obj 1279 337 r p32;
#X text 801 106 receive pitch modulation from lfo;
#X obj 656 93 osc~;
#X obj 656 117 *~;
#X obj 626 142 +~;
#X obj 656 66 r lfo-rate;
#X obj 690 120 r lfo-depth;
#X obj 574 41 inlet;
#X obj 32 290 *~ 1;
#X obj 72 290 *~ 2;
#X obj 113 290 *~ 3;
#X obj 153 290 *~ 4;
#X obj 192 290 *~ 5;
#X obj 232 290 *~ 6;
#X obj 273 290 *~ 7;
#X obj 313 290 *~ 8;
#X obj 352 290 *~ 9;
#X obj 392 290 *~ 10;
#X obj 433 290 *~ 11;
#X obj 473 290 *~ 12;
#X obj 512 290 *~ 13;
#X obj 552 290 *~ 14;
#X obj 593 290 *~ 15;
#X obj 633 290 *~ 16;
#X obj 672 289 *~ 17;
#X obj 712 289 *~ 18;
#X obj 754 289 *~ 19;
#X obj 793 289 *~ 20;
#X obj 832 289 *~ 21;
#X obj 872 289 *~ 22;
#X obj 913 289 *~ 23;
#X obj 953 289 *~ 24;
#X obj 992 289 *~ 25;
#X obj 1032 289 *~ 26;
#X obj 1073 289 *~ 27;
#X obj 1113 289 *~ 28;
#X obj 1152 289 *~ 29;
#X obj 1192 289 *~ 30;
#X obj 1233 289 *~ 31;
#X obj 1273 289 *~ 32;
#X connect 0 0 1 0;
#X connect 1 0 4 0;
#X connect 2 0 1 1;
#X connect 5 0 6 0;
#X connect 6 0 4 0;
#X connect 7 0 8 0;
#X connect 8 0 4 0;
#X connect 9 0 10 0;
#X connect 10 0 4 0;
#X connect 11 0 12 0;
#X connect 12 0 4 0;
#X connect 13 0 14 0;
#X connect 14 0 4 0;
#X connect 15 0 16 0;
#X connect 16 0 4 0;
#X connect 17 0 18 0;
#X connect 18 0 4 0;
#X connect 19 0 20 0;
#X connect 20 0 4 0;
#X connect 21 0 22 0;
#X connect 22 0 4 0;
#X connect 23 0 24 0;
#X connect 24 0 4 0;
#X connect 25 0 26 0;
#X connect 26 0 4 0;
#X connect 27 0 28 0;
#X connect 28 0 4 0;
#X connect 29 0 30 0;
#X connect 30 0 4 0;
#X connect 31 0 32 0;
#X connect 32 0 4 0;
#X connect 33 0 34 0;
#X connect 34 0 4 0;
#X connect 35 0 36 0;
#X connect 36 0 4 0;
#X connect 37 0 38 0;
#X connect 38 0 4 0;
#X connect 39 0 40 0;
#X connect 40 0 4 0;
#X connect 41 0 42 0;
#X connect 42 0 4 0;
#X connect 43 0 44 0;
#X connect 44 0 4 0;
#X connect 45 0 46 0;
#X connect 46 0 4 0;
#X connect 47 0 48 0;
#X connect 48 0 4 0;
#X connect 49 0 50 0;
#X connect 50 0 4 0;
#X connect 51 0 52 0;
#X connect 52 0 4 0;
#X connect 53 0 54 0;
#X connect 54 0 4 0;
#X connect 55 0 56 0;
#X connect 56 0 4 0;
#X connect 57 0 58 0;
#X connect 58 0 4 0;
#X connect 59 0 60 0;
#X connect 60 0 4 0;
#X connect 61 0 62 0;
#X connect 62 0 4 0;
#X connect 63 0 64 0;
#X connect 64 0 4 0;
#X connect 65 0 66 0;
#X connect 66 0 4 0;
#X connect 67 0 6 1;
#X connect 68 0 8 1;
#X connect 69 0 10 1;
#X connect 70 0 12 1;
#X connect 71 0 14 1;
#X connect 72 0 16 1;
#X connect 73 0 18 1;
#X connect 74 0 20 1;
#X connect 75 0 22 1;
#X connect 76 0 24 1;
#X connect 77 0 26 1;
#X connect 78 0 28 1;
#X connect 79 0 30 1;
#X connect 80 0 32 1;
#X connect 81 0 34 1;
#X connect 82 0 36 1;
#X connect 83 0 38 1;
#X connect 84 0 40 1;
#X connect 85 0 42 1;
#X connect 86 0 44 1;
#X connect 87 0 46 1;
#X connect 88 0 48 1;
#X connect 89 0 50 1;
#X connect 90 0 52 1;
#X connect 91 0 54 1;
#X connect 92 0 56 1;
#X connect 93 0 58 1;
#X connect 94 0 60 1;
#X connect 95 0 62 1;
#X connect 96 0 64 1;
#X connect 97 0 66 1;
#X connect 99 0 100 0;
#X connect 100 0 101 1;
#X connect 101 0 105 0;
#X connect 101 0 136 0;
#X connect 101 0 135 0;
#X connect 101 0 134 0;
#X connect 101 0 133 0;
#X connect 101 0 132 0;
#X connect 101 0 131 0;
#X connect 101 0 130 0;
#X connect 101 0 129 0;
#X connect 101 0 128 0;
#X connect 101 0 127 0;
#X connect 101 0 126 0;
#X connect 101 0 125 0;
#X connect 101 0 124 0;
#X connect 101 0 123 0;
#X connect 101 0 122 0;
#X connect 101 0 121 0;
#X connect 101 0 120 0;
#X connect 101 0 119 0;
#X connect 101 0 118 0;
#X connect 101 0 117 0;
#X connect 101 0 116 0;
#X connect 101 0 115 0;
#X connect 101 0 114 0;
#X connect 101 0 113 0;
#X connect 101 0 112 0;
#X connect 101 0 111 0;
#X connect 101 0 110 0;
#X connect 101 0 109 0;
#X connect 101 0 108 0;
#X connect 101 0 107 0;
#X connect 101 0 106 0;
#X connect 102 0 99 0;
#X connect 103 0 100 1;
#X connect 104 0 101 0;
#X connect 105 0 0 0;
#X connect 106 0 5 0;
#X connect 107 0 7 0;
#X connect 108 0 9 0;
#X connect 109 0 11 0;
#X connect 110 0 13 0;
#X connect 111 0 15 0;
#X connect 112 0 17 0;
#X connect 113 0 19 0;
#X connect 114 0 21 0;
#X connect 115 0 23 0;
#X connect 116 0 25 0;
#X connect 117 0 27 0;
#X connect 118 0 29 0;
#X connect 119 0 31 0;
#X connect 120 0 33 0;
#X connect 121 0 35 0;
#X connect 122 0 37 0;
#X connect 123 0 39 0;
#X connect 124 0 41 0;
#X connect 125 0 43 0;
#X connect 126 0 45 0;
#X connect 127 0 47 0;
#X connect 128 0 49 0;
#X connect 129 0 51 0;
#X connect 130 0 53 0;
#X connect 131 0 55 0;
#X connect 132 0 57 0;
#X connect 133 0 59 0;
#X connect 134 0 61 0;
#X connect 135 0 63 0;
#X connect 136 0 65 0;
