#N canvas 203 173 827 746 12;
#X obj 382 45 inlet;
#X obj 469 368 *~;
#X obj 349 489 outlet~;
#X text 369 27 midi + vel;
#X obj 386 79 unpack;
#N canvas 754 132 884 830 amp-envelope 1;
#X obj 100 211 bng 15 250 50 0 empty empty empty 17 7 0 10 -262144
-1 -1;
#X obj 338 420 line~;
#X obj 395 495 *~;
#X obj 395 519 *~;
#X floatatom 428 129 5 0 0 0 - - -;
#X obj 427 107 r decay;
#X text 490 100 receive decay info;
#X obj 118 279 r attack;
#X text 103 256 receive attack info;
#X obj 107 125 spigot;
#X floatatom 131 308 5 0 0 0 - - -;
#X obj 56 302 pack 1 3;
#X obj 352 120 select 0;
#X text 312 70 trigger decay when note off received.;
#X text 161 128 ignore note off;
#X obj 705 256 r sustain;
#X obj 601 216 r attack;
#X obj 649 311 r decay;
#X floatatom 716 284 5 0 0 0 - - -;
#X obj 83 57 inlet;
#X obj 219 52 inlet;
#X text 212 34 velocity;
#X text 48 34 note # and bang;
#X obj 353 580 outlet~;
#X obj 375 155 pack 0 3;
#X obj 579 335 pack 1 3;
#X obj 571 241 del 3;
#X text 559 192 decay to sustain value after attack;
#X obj 629 254 *;
#X obj 629 278 / 128;
#X obj 254 381 tgl 15 0 empty empty empty 17 7 0 10 -262144 -1 -1 0
1;
#X obj 443 480 tgl 15 0 empty empty empty 17 7 0 10 -262144 -1 -1 1
1;
#X obj 395 543 *~;
#X text 480 481 starts on \, turned off by attack \, back on again
by note off;
#X text 38 628 starts off \, turned on by attack \, back off again
by note off;
#X obj 274 477 *~;
#X obj 461 433 loadbang;
#X text 483 459 exponential decay;
#X obj 254 425 line~;
#X obj 442 525 line~;
#X obj 254 401 pack f f;
#X obj 443 500 pack f f;
#X obj 542 625 *~;
#X obj 594 591 *~;
#X obj 590 555 *~;
#X obj 642 569 tgl 15 0 empty empty empty 17 7 0 10 -262144 -1 -1 0
1;
#X text 9 208 note on bang;
#X text 52 547 linear attack doesn't work right now;
#X text 632 172 SUSTAIN;
#X text 425 48 DECAY;
#X text 23 254 ATTACK;
#X text 45 426 line object creates envelope;
#X connect 0 0 11 0;
#X connect 0 0 26 0;
#X connect 0 0 30 0;
#X connect 0 0 31 0;
#X connect 1 0 2 0;
#X connect 1 0 2 1;
#X connect 1 0 35 1;
#X connect 2 0 3 0;
#X connect 2 0 3 1;
#X connect 3 0 32 0;
#X connect 4 0 24 1;
#X connect 5 0 4 0;
#X connect 7 0 10 0;
#X connect 7 0 11 1;
#X connect 9 0 0 0;
#X connect 11 0 1 0;
#X connect 12 0 31 0;
#X connect 12 0 30 0;
#X connect 12 0 24 0;
#X connect 15 0 18 0;
#X connect 15 0 28 1;
#X connect 16 0 26 1;
#X connect 17 0 25 1;
#X connect 17 0 40 1;
#X connect 17 0 41 1;
#X connect 19 0 9 0;
#X connect 20 0 9 1;
#X connect 20 0 12 0;
#X connect 20 0 28 0;
#X connect 24 0 1 0;
#X connect 25 0 1 0;
#X connect 26 0 25 0;
#X connect 28 0 29 0;
#X connect 29 0 25 0;
#X connect 30 0 40 0;
#X connect 31 0 41 0;
#X connect 32 0 23 0;
#X connect 35 0 23 0;
#X connect 36 0 31 0;
#X connect 38 0 35 0;
#X connect 39 0 32 1;
#X connect 40 0 38 0;
#X connect 41 0 39 0;
#X connect 43 0 42 1;
#X connect 44 0 43 0;
#X connect 45 0 43 1;
#X restore 483 231 pd amp-envelope;
#X text 147 212 32 sine waves;
#X text 592 260 amp envelop control;
#N canvas 500 150 1073 830 filter-envelope 0;
#X obj 225 182 bng 15 250 50 0 empty empty empty 17 7 0 10 -262144
-1 -1;
#X floatatom 673 126 5 0 0 0 - - -;
#X text 759 103 receive decay info;
#X text 228 227 receive attack info;
#X obj 249 122 spigot;
#X floatatom 270 281 5 0 0 0 - - -;
#X obj 531 86 select 0;
#X text 557 67 trigger decay when note off received.;
#X text 303 125 ignore note off;
#X floatatom 876 292 5 0 0 0 - - -;
#X obj 225 54 inlet;
#X obj 361 49 inlet;
#X text 354 31 velocity;
#X text 190 31 note # and bang;
#X obj 417 695 outlet~;
#X text 605 214 decay to sustain value after attack;
#X obj 803 485 inlet~;
#X obj 243 250 r vcf-atk;
#X obj 631 236 r vcf-atk;
#X obj 678 100 r vcf-dec;
#X obj 864 259 r vcf-sus;
#X obj 759 344 r vcf-dec;
#X obj 47 179 r cutoff;
#X obj 604 103 r cutoff;
#X obj 131 176 r amt, f 6;
#X text -2 153 top of sweep = cutoff + mod amt;
#X obj 552 342 r cutoff;
#X obj 601 261 del 0;
#X obj 734 231 r cutoff;
#X floatatom 345 458 5 0 0 0 - - -;
#X floatatom 94 269 5 0 0 0 - - -;
#X floatatom 710 329 5 0 0 0 - - -;
#X obj 595 549 loadbang;
#X msg 590 576 20000;
#X obj 811 241 r amt;
#X obj 716 303 ++;
#X obj 122 236 ++;
#X obj 823 284 **;
#X obj 155 277 pack 20000 5;
#X obj 589 147 pack 20000 5;
#X obj 653 368 pack 20000 5;
#X obj 539 146 bng 15 250 50 0 empty empty empty 17 7 0 10 -262144
-1 -1;
#X obj 380 432 line;
#X obj 432 567 flt.moog_vcf~;
#X obj 550 443 r res;
#X msg 550 467 \$1 100;
#X msg 549 491 @res \$1;
#X text 607 463 set resonance;
#X text 132 573 resonant low pass filter from external;
#X obj 334 347 v cutoff-freq;
#X obj 334 322 r cutoff;
#X msg 334 371 \$1;
#X text 246 180 note on bang;
#X text 645 43 DECAY;
#X text 713 195 SUSTAIN;
#X text 801 457 audio in;
#X text 69 130 ATTACK;
#X text 140 427 line object creates envelope;
#X connect 0 0 27 0;
#X connect 0 0 38 0;
#X connect 0 0 49 0;
#X connect 1 0 39 1;
#X connect 4 0 0 0;
#X connect 6 0 39 0;
#X connect 6 0 41 0;
#X connect 10 0 4 0;
#X connect 11 0 4 1;
#X connect 11 0 6 0;
#X connect 16 0 43 0;
#X connect 17 0 5 0;
#X connect 17 0 38 1;
#X connect 18 0 27 1;
#X connect 19 0 1 0;
#X connect 20 0 9 0;
#X connect 20 0 37 1;
#X connect 21 0 40 1;
#X connect 22 0 36 0;
#X connect 23 0 39 0;
#X connect 24 0 36 1;
#X connect 27 0 40 0;
#X connect 28 0 35 0;
#X connect 32 0 33 0;
#X connect 33 0 43 1;
#X connect 34 0 37 0;
#X connect 35 0 31 0;
#X connect 35 0 40 0;
#X connect 36 0 30 0;
#X connect 36 0 38 0;
#X connect 37 0 35 1;
#X connect 38 0 42 0;
#X connect 39 0 42 0;
#X connect 40 0 42 0;
#X connect 42 0 29 0;
#X connect 42 0 43 1;
#X connect 43 0 14 0;
#X connect 44 0 45 0;
#X connect 45 0 46 0;
#X connect 46 0 43 0;
#X connect 49 0 51 0;
#X connect 50 0 49 0;
#X connect 51 0 42 0;
#X restore 349 433 pd filter-envelope;
#X text 492 434 filter envelope control;
#X obj 262 208 partials;
#X text 103 540 This subpatch serves as an individual voice that gets
cloned 16 times to provide polyphony;
#X connect 0 0 4 0;
#X connect 1 0 8 2;
#X connect 4 0 8 0;
#X connect 4 0 5 0;
#X connect 4 0 10 0;
#X connect 4 1 8 1;
#X connect 4 1 5 1;
#X connect 5 0 1 1;
#X connect 8 0 2 0;
#X connect 10 0 1 0;
