#N canvas 214 397 1030 617 16;
#X obj 257 128 inlet~;
#X obj 253 350 *~;
#X obj 292 203 dbtorms;
#X floatatom 312 242 5 0 0 0 - - -;
#X msg 285 279 \$1 20;
#X obj 285 308 line~;
#X obj 105 136 hsl 128 15 0 100 0 0 empty empty dB_(0-100) -2 -8 0
10 -261682 -1 -1 0 1;
#X obj 246 455 dac~;
#X obj 245 398 *~;
#X obj 185 104 tgl 15 0 empty empty On/Off 17 7 0 10 -203904 -1 -1
0 1;
#X text 208 62 this should be an oscillator signal;
#X obj 315 363 line;
#X msg 381 295 \$1 300;
#X obj 605 171 cnv 15 100 60 empty empty empty 20 12 0 14 -233017 -66577
0;
#X connect 0 0 1 0;
#X connect 1 0 8 0;
#X connect 2 0 3 0;
#X connect 2 0 4 0;
#X connect 4 0 5 0;
#X connect 5 0 1 1;
#X connect 6 0 2 0;
#X connect 8 0 7 0;
#X connect 8 0 7 1;
#X connect 9 0 12 0;
#X connect 11 0 8 1;
#X connect 12 0 11 0;
#X coords 0 -1 1 1 140 60 2 100 100;
